<?xml version="1.0" encoding="utf-8"?>
<!-- Generator: Adobe Illustrator 24.3.0, SVG Export Plug-In . SVG Version: 6.00 Build 0)  -->
<svg version="1.1" id="Layer_1" xmlns="http://www.w3.org/2000/svg" xmlns:xlink="http://www.w3.org/1999/xlink" x="0px" y="0px"
	 viewBox="0 0 128 128" style="enable-background:new 0 0 128 128;" xml:space="preserve">
<style type="text/css">
	.st0{fill:#CBCB2C;stroke:#000000;stroke-width:2;stroke-miterlimit:10;}
</style>
<g>
	<path class="st0" d="M35.1,5.5C41.9,4.1,52.6,3,63.6,3c15.6,0,25.6,2.7,33.1,8.8c6.3,4.7,10,11.8,10,21.3
		c0,11.6-7.7,21.8-20.4,26.5v0.4c11.5,2.9,24.9,12.3,24.9,30.2c0,10.4-4.1,18.3-10.2,24.2c-8.4,7.7-22,11.3-41.7,11.3
		c-10.7,0-19-0.7-24.2-1.4V5.5z M50.7,54.9h14.1c16.5,0,26.1-8.6,26.1-20.2C90.9,20.5,80.2,15,64.5,15c-7.2,0-11.3,0.5-13.8,1.1
		V54.9z M50.7,112.7c3,0.5,7.5,0.7,13.1,0.7c16.1,0,31-5.9,31-23.4c0-16.5-14.1-23.3-31.1-23.3H50.7V112.7z"/>
</g>
</svg>
