<?xml version="1.0" encoding="utf-8"?>
<!-- Generator: Adobe Illustrator 24.3.0, SVG Export Plug-In . SVG Version: 6.00 Build 0)  -->
<svg version="1.1" id="Layer_1" xmlns="http://www.w3.org/2000/svg" xmlns:xlink="http://www.w3.org/1999/xlink" x="0px" y="0px"
	 viewBox="0 0 220 36" style="enable-background:new 0 0 220 36;" xml:space="preserve">
<style type="text/css">
	.st0{fill:#E5FF00;}
</style>
<rect class="st0" width="220" height="36"/>
<g>
	<path d="M6.3,7.2h8.3c2.1,0,3.7,0.6,4.7,1.6c1.1,1.1,1.6,2.5,1.6,4.3c0,0.9-0.2,1.8-0.6,2.6c-0.2,0.4-0.5,0.8-1,1.1
		c-0.4,0.4-0.9,0.7-1.6,1v0.1c1.2,0.3,2,0.9,2.6,1.9c0.6,1,0.8,2,0.8,3.2c0,1.9-0.6,3.4-1.7,4.5c-1.1,1.2-2.5,1.7-4.2,1.7h-9V7.2z
		 M9.5,10.1v6.3h4.7c1.2,0,2.1-0.3,2.6-1c0.6-0.6,0.9-1.3,0.9-2.2s-0.3-1.6-0.9-2.3c-0.6-0.6-1.4-0.9-2.6-0.9H9.5z M9.5,19.4v6.6h5
		c1.2,0,2.1-0.4,2.6-1c0.6-0.6,0.8-1.4,0.8-2.3c0-0.9-0.3-1.7-0.8-2.3c-0.6-0.6-1.4-1-2.6-1H9.5z"/>
	<path d="M25.2,7.2h8.4c1.8,0,3.2,0.5,4.4,1.5c1.4,1.1,2.1,2.7,2.1,4.7c0,3-1.4,5-4.1,6.1l4.9,9.8H37l-4.4-9.4h-4.1v9.4h-3.2V7.2z
		 M28.4,16.8h4.9c1.2,0,2.1-0.4,2.7-1.1c0.6-0.7,0.9-1.5,0.9-2.4c0-1.2-0.4-2-1.1-2.5c-0.5-0.5-1.3-0.7-2.4-0.7h-5.1V16.8z"/>
	<path d="M44.1,7.2h3.2v22.1h-3.2V7.2z"/>
	<path d="M66.5,23.1c-0.5,2-1.4,3.6-2.7,4.7c-1.4,1.1-3,1.6-4.8,1.6c-1.7,0-3.1-0.5-4.2-1.3c-1.1-0.8-2-1.7-2.5-2.7
		c-0.2-0.3-0.3-0.7-0.4-1c-0.1-0.3-0.2-0.7-0.3-1.2c-0.1-0.9-0.2-2.6-0.2-5.1c0-2.6,0.1-4.3,0.2-5.1c0.2-0.9,0.4-1.6,0.7-2.1
		c0.5-1,1.3-1.9,2.5-2.7C55.9,7.4,57.3,7,59,7c2.1,0,3.7,0.6,5,1.9c1.3,1.2,2.1,2.8,2.5,4.6H63c-0.3-0.9-0.7-1.6-1.4-2.3
		c-0.7-0.6-1.6-0.9-2.6-0.9c-0.8,0-1.4,0.2-2,0.5c-0.6,0.3-1,0.7-1.4,1.1c-0.4,0.5-0.7,1.1-0.8,1.8c-0.2,0.8-0.2,2.3-0.2,4.4
		c0,2.2,0.1,3.6,0.2,4.4c0.1,0.8,0.4,1.4,0.8,1.9c0.3,0.5,0.8,0.8,1.4,1.1c0.5,0.3,1.2,0.5,2,0.5c1.8,0,3.2-1,4.1-3H66.5z"/>
	<path d="M69.3,7.2h3.2v11.4h0.1l8.8-11.4h3.8l-6.8,8.7L86,29.2h-3.8l-5.8-10.8l-3.8,4.1v6.7h-3.2V7.2z"/>
	<path d="M92.6,20.2l-6.4-13h3.4l4.5,9.8l4.5-9.8h3.4l-6.4,13v9.1h-3.1V20.2z"/>
	<path d="M113,24.3h-8.1l-1.6,4.9h-3.4l7.8-22.1h2.7l7.8,22.1h-3.4L113,24.3z M112.1,21.3l-3.1-9.7h-0.1l-3.1,9.7H112.1z"/>
	<path d="M120.9,7.2h8.4c1.8,0,3.2,0.5,4.4,1.5c1.4,1.1,2.1,2.7,2.1,4.7c0,3-1.4,5-4.1,6.1l4.9,9.8h-3.8l-4.4-9.4h-4.1v9.4h-3.2V7.2
		z M124.2,16.8h4.9c1.2,0,2.1-0.4,2.7-1.1c0.6-0.7,0.9-1.5,0.9-2.4c0-1.2-0.4-2-1.1-2.5c-0.5-0.5-1.3-0.7-2.4-0.7h-5.1V16.8z"/>
	<path d="M139.8,7.2h7.5c2.9,0,5.1,1.3,6.5,3.7c0.5,0.8,0.8,1.7,1,2.6c0.1,0.9,0.2,2.5,0.2,4.7c0,2.4-0.1,4-0.2,5
		c-0.1,0.5-0.2,0.9-0.4,1.3c-0.2,0.4-0.4,0.7-0.6,1.1c-0.6,1-1.5,1.9-2.6,2.6c-1.1,0.7-2.5,1.1-4.1,1.1h-7.3V7.2z M143.1,26.1h3.9
		c1.8,0,3.1-0.6,4-1.9c0.4-0.5,0.6-1.1,0.7-1.8c0.1-0.7,0.1-2.1,0.1-4c0-1.9,0-3.3-0.1-4.1c-0.1-0.8-0.4-1.5-0.8-2
		c-0.9-1.3-2.2-1.9-3.8-1.9h-3.9V26.1z"/>
	<path d="M166.8,7.2h3.2v22.1h-3.2V7.2z"/>
	<path d="M174.8,7.2h3.1l9.7,15.7h0.1V7.2h3.2v22.1h-3.1l-9.7-15.7H178v15.7h-3.2V7.2z"/>
	<path d="M196,7.2h3.1l9.7,15.7h0.1V7.2h3.2v22.1H209l-9.7-15.7h-0.1v15.7H196V7.2z"/>
</g>
</svg>
